<svg id="Layer_1" data-name="Layer 1" xmlns="http://www.w3.org/2000/svg" xmlns:xlink="http://www.w3.org/1999/xlink" viewBox="0 0 1352.84 889.03"><defs><style>.cls-1{fill:#33f2bb;}.cls-2{fill:url(#radial-gradient);}.cls-3{fill:url(#radial-gradient-2);}.cls-4{fill:url(#radial-gradient-3);}</style><radialGradient id="radial-gradient" cx="1436" cy="-763.11" r="1421.27" gradientUnits="userSpaceOnUse"><stop offset="0" stop-color="#3d08ea"/><stop offset="0.99" stop-color="#7815fc"/></radialGradient><radialGradient id="radial-gradient-2" cx="240.65" cy="245.8" r="53.69" gradientTransform="matrix(0, 1.05, -0.95, 0, 500.22, 10.16)" xlink:href="#radial-gradient"/><radialGradient id="radial-gradient-3" cx="1231.59" cy="725.94" r="31.76" gradientTransform="translate(194.89 -258.47) rotate(13)" xlink:href="#radial-gradient"/></defs><title>web1</title><path class="cls-1" d="M217,189.93a215.34,215.34,0,0,0,26.86-1.67C424.84,167,349.14,435.93,419,468.89c81.47,38.43,118.23-24.75,168.34-24.75a95.58,95.58,0,0,0,50.83-14.6c180.91-95.05,393.83,6.35,405.44,135.76,20.94,35.75,47.26,35.35,89,42.51,139,25.36,161.59,119.73,149,193.34h0a78.58,78.58,0,0,0-1.11,13c0,41.09,32.33,74.43,72.38,74.88V0H0C16.33,107.59,142,190.22,217,189.93Z" transform="translate(0 0)"/><path class="cls-2" d="M217,189.93a215.34,215.34,0,0,0,26.86-1.67C446.81,164.1,347.88,415.34,418,471.89c88.37,71.26,165.49-7.05,224.62-45.08C734,368.07,1005,367.05,1032.51,523.5a237,237,0,0,0,10.85,41.13c12.38,33.56,25.42,55.43,62.31,50.26a161.59,161.59,0,0,1,85,10.73c58.33,24.48,133.72,78.59,89.93,188.17a3.22,3.22,0,0,0-.19.74c-6.05,47.91,30.55,72.78,69.4,74.42a2.9,2.9,0,0,0,3-2.89V2.88A2.88,2.88,0,0,0,1350,0H0C34.54,92.81,126.57,174.25,217,189.93Z" transform="translate(0 0)"/><ellipse class="cls-3" cx="267.8" cy="262.44" rx="54.84" ry="51.37" transform="translate(-95.34 169.06) rotate(-30)"/><ellipse class="cls-4" cx="1231.59" cy="725.94" rx="30.09" ry="33.33" transform="translate(-131.75 295.69) rotate(-13)"/></svg>